<svg width="20" height="20" viewBox="0 0 20 20" fill="none" xmlns="http://www.w3.org/2000/svg">
<g clip-path="url(#clip0)">
<path d="M4.21692 16.6099C4.21718 17.0483 4.39142 17.4686 4.70136 17.7785C5.0113 18.0884 5.4316 18.2627 5.86992 18.2629H14.1329C14.5712 18.2627 14.9915 18.0884 15.3015 17.7785C15.6114 17.4686 15.7857 17.0483 15.7859 16.6099V6.69495H4.21692V16.6099ZM5.86992 8.34795H14.1329V16.6109H5.86992V8.34795Z" fill="#737373"/>
<path d="M12.479 4.21696V2.56396H7.52197V4.21696H2.56396V5.86896H17.437V4.21696H12.479Z" fill="#737373"/>
<path d="M9.00098 10.001H7.00098V15.001H9.00098V10.001Z" fill="#737373"/>
<path d="M13.001 10.001H11.001V15.001H13.001V10.001Z" fill="#737373"/>
</g>
<defs>
<clipPath id="clip0">
<rect width="20" height="20" fill="white"/>
</clipPath>
</defs>
</svg>
