<svg width="20" height="20" viewBox="0 0 20 20" fill="none" xmlns="http://www.w3.org/2000/svg">
<path d="M15.142 18.569H3.14201C2.68837 18.5677 2.25374 18.3867 1.93326 18.0656C1.61277 17.7446 1.43253 17.3096 1.43201 16.856V4.856C1.43359 4.40227 1.61481 3.96764 1.93602 3.64718C2.25723 3.32672 2.69228 3.14652 3.14601 3.146H9.14601V4.86H3.14601V16.86H15.146V9.146H16.86V16.856C16.8597 17.0813 16.8151 17.3043 16.7286 17.5124C16.6421 17.7204 16.5155 17.9094 16.3559 18.0685C16.1964 18.2275 16.0071 18.3536 15.7988 18.4395C15.5905 18.5254 15.3673 18.5694 15.142 18.569Z" fill="#737373"/>
<path d="M8.12299 8.59998L10.546 11.022L7.51599 11.628L8.12299 8.59998Z" fill="#737373"/>
<path d="M17.212 4.35802C17.5336 4.03645 17.7142 3.6003 17.7142 3.14552C17.7142 2.69074 17.5336 2.25459 17.212 1.93302C16.8904 1.61145 16.4543 1.43079 15.9995 1.43079C15.5447 1.43079 15.1086 1.61145 14.787 1.93302L9.33398 7.38802L11.758 9.81202L17.212 4.35802Z" fill="#737373"/>
</svg>
