<svg width="150" height="20" viewBox="0 0 150 20" fill="none" xmlns="http://www.w3.org/2000/svg">
<g clip-path="url(#clip0)">
<path d="M5.258 14.743H0V20.001H5.258V14.743Z" fill="#009EE3"/>
<path d="M0 7.77905H12.234V20.0011H6.744V13.2561H0V7.77905Z" fill="#CFD0D0"/>
<path d="M0 0H20.016V20H13.982V6.038H0V0Z" fill="#BBBCBC"/>
<path d="M31.65 0.0469971C28.15 0.0469971 26.061 2.826 26.061 6.159C26.061 9.492 28.153 12.272 31.65 12.272C35.147 12.272 37.239 9.493 37.239 6.159C37.239 2.825 35.147 0.0469971 31.65 0.0469971ZM31.65 1.714C34.15 1.714 35.196 3.92 35.196 6.159C35.196 8.398 34.15 10.604 31.65 10.604C29.15 10.604 28.104 8.398 28.104 6.159C28.104 3.92 29.15 1.714 31.65 1.714ZM39.478 11.994H41.423V2.989H41.456L44.692 11.994H46.376L49.612 2.989H49.645V11.994H51.592V0.324997H48.744L45.606 9.46H45.573L42.354 0.324997H39.478V11.994ZM54.366 11.994H56.311V3.414H56.36L61.671 11.994H63.829V0.324997H61.884V8.925H61.851L56.524 0.324997H54.366V11.994ZM66.655 11.994H68.698V0.324997H66.656L66.655 11.994Z" fill="#3A3A39"/>
<path d="M142.062 2.32602H144.874C146.019 2.32602 146.641 2.81702 146.641 3.94502C146.641 5.12302 146.019 5.61302 144.874 5.61302H142.062V2.32602ZM139.492 12.007H142.062V7.44502H144.63C145.922 7.44502 146.396 7.98502 146.576 9.21202C146.609 10.1575 146.746 11.0965 146.984 12.012H149.552C149.185 11.1389 149.017 10.1951 149.061 9.24902C148.979 8.07102 148.62 6.84902 147.361 6.51802V6.47702C147.945 6.25634 148.442 5.85124 148.775 5.32308C149.109 4.79492 149.261 4.17247 149.209 3.55002C149.211 3.10945 149.123 2.67312 148.949 2.26823C148.775 1.86334 148.52 1.49857 148.199 1.19666C147.879 0.894744 147.499 0.662158 147.084 0.5134C146.67 0.364641 146.229 0.302898 145.789 0.33202H139.489L139.492 12.007ZM128.892 12.007H137.762V9.84902H131.462V6.98702H137.12V4.99202H131.462V2.49202H137.627V0.33202H128.894L128.892 12.007ZM117.085 12.007H119.652V8.24602L121.124 6.75802L124.641 12.007H127.862L122.862 4.94302L127.423 0.33202H124.218L119.655 5.17702V0.33202H117.088L117.085 12.007ZM115.237 4.25602C115.101 3.04135 114.502 1.9261 113.563 1.14339C112.624 0.360672 111.419 -0.0289296 110.2 0.0560198C106.585 0.0560198 104.459 2.75602 104.459 6.22102C104.459 9.59002 106.585 12.288 110.2 12.288C110.852 12.3152 111.502 12.2128 112.114 11.987C112.725 11.7611 113.286 11.4161 113.764 10.9721C114.241 10.528 114.626 9.99362 114.896 9.39988C115.166 8.80614 115.315 8.16482 115.335 7.51302H112.85C112.848 7.85895 112.778 8.20113 112.644 8.51996C112.51 8.8388 112.314 9.12803 112.068 9.37111C111.822 9.61418 111.53 9.80633 111.209 9.93656C110.889 10.0668 110.546 10.1325 110.2 10.13C107.894 10.13 107.027 8.16702 107.027 6.22102C107.027 4.17602 107.894 2.21402 110.2 2.21402C110.799 2.19633 111.384 2.39227 111.851 2.76677C112.319 3.14128 112.638 3.6699 112.751 4.25802L115.237 4.25602ZM98.232 3.20902H98.262L99.734 7.49402H96.708L98.232 3.20902ZM92.525 12.009H95.125L96.04 9.40902H100.407L101.29 12.009H103.956L99.589 0.33202H96.955L92.525 12.009ZM84.525 2.32802H87.338C88.482 2.32802 89.104 2.81902 89.104 3.94702C89.104 5.12502 88.483 5.61502 87.338 5.61502H84.525V2.32802ZM81.962 12.007H84.53V7.44502H87.098C88.39 7.44502 88.864 7.98502 89.044 9.21202C89.077 10.1575 89.2138 11.0965 89.452 12.012H92.019C91.6525 11.1388 91.4848 10.195 91.528 9.24902C91.446 8.07102 91.087 6.84902 89.828 6.51802V6.47702C90.4123 6.25634 90.9088 5.85124 91.2423 5.32308C91.5758 4.79492 91.728 4.17247 91.676 3.55002C91.6783 3.10945 91.5899 2.67312 91.4162 2.26823C91.2425 1.86334 90.9873 1.49857 90.6664 1.19666C90.3455 0.894744 89.9659 0.662158 89.5512 0.5134C89.1365 0.364641 88.6956 0.302898 88.256 0.33202H81.956L81.962 12.007ZM74.554 12.007H77.121V2.49002H80.621V0.33202H71.052V2.49002H74.552L74.554 12.007Z" fill="#009FE3"/>
<path d="M30.726 15.21V15.902H29.271V19.787H28.471V15.902H27.021V15.21H30.726Z" fill="#3A3A39"/>
<path d="M32.1411 15.21V17.034H34.2241V15.214H35.0241V19.791H34.2241V17.722H32.1411V19.786H31.3411V15.21H32.1411Z" fill="#3A3A39"/>
<path d="M39.392 15.21V15.902H36.898V17.102H39.206V17.756H36.898V19.096H39.437V19.788H36.092V15.21H39.392Z" fill="#3A3A39"/>
<path d="M44.3011 15.21C45.0891 15.21 45.6341 15.595 45.6341 16.345C45.6405 16.5553 45.5809 16.7623 45.4636 16.937C45.3463 17.1117 45.1772 17.2453 44.9801 17.319V17.334C45.2428 17.3916 45.4752 17.5435 45.6335 17.761C45.7918 17.9784 45.8649 18.2463 45.8391 18.514C45.8391 19.335 45.1981 19.79 44.1851 19.79H42.0481V15.21H44.3011ZM44.1731 17.127C44.2598 17.1336 44.347 17.1217 44.4288 17.0921C44.5106 17.0625 44.5851 17.0158 44.6475 16.9552C44.71 16.8946 44.7588 16.8214 44.7908 16.7405C44.8227 16.6596 44.8372 16.5729 44.8331 16.486C44.8331 16.063 44.6211 15.864 44.1861 15.864H42.8491V17.127H44.1731ZM44.2881 19.134C44.387 19.1443 44.4869 19.1328 44.5809 19.1004C44.6749 19.068 44.7606 19.0154 44.8321 18.9463C44.9036 18.8772 44.959 18.7933 44.9946 18.7004C45.0302 18.6076 45.0451 18.5081 45.0381 18.409C45.0434 18.3113 45.0272 18.2136 44.9906 18.1229C44.954 18.0322 44.898 17.9506 44.8265 17.8838C44.755 17.8171 44.6698 17.7669 44.5767 17.7366C44.4837 17.7064 44.3852 17.697 44.2881 17.709H42.8491V19.134H44.2881Z" fill="#3A3A39"/>
<path d="M47.4241 15.21V17.915C47.4241 18.715 47.6161 19.204 48.5011 19.204C49.3861 19.204 49.5771 18.734 49.5771 17.934V15.21H50.3771V18.172C50.3379 18.6432 50.123 19.0825 49.775 19.4026C49.4271 19.7228 48.9715 19.9006 48.4986 19.9006C48.0258 19.9006 47.5702 19.7228 47.2222 19.4026C46.8743 19.0825 46.6594 18.6432 46.6201 18.172V15.21H47.4241Z" fill="#3A3A39"/>
<path d="M54.727 16.563H53.927V16.556C53.876 16.017 53.555 15.756 52.94 15.756C52.459 15.756 52.1 15.968 52.1 16.356C52.1 16.656 52.292 16.856 52.683 16.956L53.907 17.277C54.1744 17.3412 54.4129 17.4926 54.5847 17.7074C54.7566 17.9221 54.852 18.188 54.856 18.463C54.856 19.363 54.112 19.899 53.036 19.899C51.888 19.899 51.145 19.316 51.126 18.264H51.926C51.932 18.918 52.388 19.245 53.086 19.245C53.701 19.245 54.054 18.956 54.054 18.553C54.0639 18.4301 54.0319 18.3075 53.9633 18.2051C53.8947 18.1027 53.7934 18.0265 53.676 17.989C53.419 17.906 53.221 17.848 52.368 17.63C51.644 17.451 51.297 17.047 51.297 16.45C51.297 15.52 52.137 15.104 52.97 15.104C53.965 15.101 54.721 15.64 54.727 16.563Z" fill="#3A3A39"/>
<path d="M56.4931 15.21V19.787H55.6931V15.21H56.4931Z" fill="#3A3A39"/>
<path d="M58.387 15.21L60.477 18.582H60.49V15.21H61.253V19.787H60.407L58.324 16.421H58.305V19.787H57.542V15.21H58.387Z" fill="#3A3A39"/>
<path d="M65.6131 15.21V15.902H63.1181V17.102H65.4261V17.756H63.1181V19.096H65.6571V19.788H62.3181V15.21H65.6131Z" fill="#3A3A39"/>
<path d="M69.7431 16.563H68.9431V16.556C68.8921 16.017 68.5711 15.756 67.9561 15.756C67.4751 15.756 67.1161 15.968 67.1161 16.356C67.1161 16.656 67.3081 16.856 67.6991 16.956L68.9231 17.277C69.1906 17.3412 69.429 17.4926 69.6009 17.7074C69.7727 17.9221 69.8681 18.188 69.8721 18.463C69.8721 19.363 69.1281 19.899 68.0521 19.899C66.9041 19.899 66.1611 19.316 66.1421 18.264H66.9421C66.9481 18.918 67.4041 19.245 68.1021 19.245C68.7171 19.245 69.0701 18.956 69.0701 18.553C69.08 18.4301 69.048 18.3075 68.9794 18.2051C68.9108 18.1027 68.8095 18.0265 68.6921 17.989C68.4351 17.906 68.2371 17.848 67.3841 17.63C66.6601 17.451 66.3131 17.047 66.3131 16.45C66.3131 15.52 67.1531 15.104 67.9861 15.104C68.9811 15.101 69.7371 15.64 69.7431 16.563Z" fill="#3A3A39"/>
<path d="M74.0409 16.563H73.2409V16.556C73.1899 16.017 72.8689 15.756 72.2539 15.756C71.7729 15.756 71.4139 15.968 71.4139 16.356C71.4139 16.656 71.6059 16.856 71.9969 16.956L73.2209 17.277C73.4884 17.3412 73.7269 17.4926 73.8987 17.7074C74.0705 17.9221 74.166 18.188 74.1699 18.463C74.1699 19.363 73.4259 19.899 72.3499 19.899C71.2019 19.899 70.4589 19.316 70.4399 18.264H71.2399C71.2459 18.918 71.7019 19.245 72.3999 19.245C73.0149 19.245 73.3679 18.956 73.3679 18.553C73.3779 18.4301 73.3459 18.3075 73.2773 18.2051C73.2086 18.1027 73.1074 18.0265 72.9899 17.989C72.7329 17.906 72.5349 17.848 71.6819 17.63C70.9579 17.451 70.6109 17.047 70.6109 16.45C70.6109 15.52 71.4509 15.104 72.2839 15.104C73.2789 15.101 74.0349 15.64 74.0409 16.563Z" fill="#3A3A39"/>
<path d="M78.832 15.2099C79.0267 15.1944 79.2225 15.2193 79.4071 15.2831C79.5917 15.3469 79.7611 15.4483 79.9046 15.5808C80.0481 15.7133 80.1626 15.8741 80.241 16.053C80.3193 16.2319 80.3597 16.4251 80.3597 16.6204C80.3597 16.8158 80.3193 17.009 80.241 17.1879C80.1626 17.3668 80.0481 17.5276 79.9046 17.6601C79.7611 17.7926 79.5917 17.894 79.4071 17.9578C79.2225 18.0216 79.0267 18.0465 78.832 18.0309H77.582V19.7869H76.782V15.2099H78.832ZM78.774 17.3769C78.8765 17.385 78.9796 17.3711 79.0763 17.3363C79.1731 17.3016 79.2614 17.2466 79.3353 17.1751C79.4092 17.1037 79.4671 17.0173 79.5052 16.9217C79.5432 16.8262 79.5605 16.7237 79.556 16.6209C79.5691 16.5179 79.5582 16.4133 79.5244 16.3151C79.4906 16.217 79.4346 16.1279 79.3609 16.0548C79.2871 15.9818 79.1975 15.9266 79.0991 15.8937C79.0006 15.8608 78.8959 15.8509 78.793 15.8649H77.581V17.3759L78.774 17.3769Z" fill="#3A3A39"/>
<path d="M83.2849 15.21C84.2019 15.21 84.7659 15.64 84.7659 16.447C84.787 16.6961 84.724 16.9452 84.5869 17.1543C84.4499 17.3635 84.2468 17.5207 84.0099 17.601V17.613C84.4519 17.671 84.6889 18.036 84.6889 18.594C84.6441 19.0077 84.7316 19.4251 84.9389 19.786H84.0799C83.9747 19.5761 83.9324 19.3403 83.9579 19.107C83.9991 18.7658 83.9199 18.4209 83.7339 18.132C83.6457 18.05 83.5413 17.9872 83.4276 17.9476C83.3138 17.9081 83.193 17.8925 83.0729 17.902H81.8729V19.787H81.0699V15.21H83.2849ZM83.202 17.294C83.3028 17.3088 83.4057 17.3005 83.5028 17.2695C83.6 17.2385 83.6887 17.1857 83.7623 17.1152C83.836 17.0447 83.8925 16.9582 83.9276 16.8625C83.9627 16.7668 83.9755 16.6644 83.9649 16.563C83.9649 16.089 83.7339 15.863 83.1949 15.863H81.8699V17.293L83.202 17.294Z" fill="#3A3A39"/>
<path d="M89.826 17.4991C89.8511 17.8022 89.813 18.1073 89.7142 18.395C89.6154 18.6827 89.458 18.9468 89.252 19.1706C89.046 19.3944 88.7958 19.5731 88.5172 19.6953C88.2386 19.8175 87.9377 19.8806 87.6335 19.8806C87.3293 19.8806 87.0284 19.8175 86.7498 19.6953C86.4712 19.5731 86.221 19.3944 86.0149 19.1706C85.8089 18.9468 85.6515 18.6827 85.5527 18.395C85.4539 18.1073 85.4159 17.8022 85.441 17.4991C85.4159 17.1959 85.4539 16.8908 85.5527 16.6031C85.6515 16.3154 85.8089 16.0513 86.0149 15.8275C86.221 15.6037 86.4712 15.425 86.7498 15.3028C87.0284 15.1806 87.3293 15.1176 87.6335 15.1176C87.9377 15.1176 88.2386 15.1806 88.5172 15.3028C88.7958 15.425 89.046 15.6037 89.252 15.8275C89.458 16.0513 89.6154 16.3154 89.7142 16.6031C89.813 16.8908 89.8511 17.1959 89.826 17.4991ZM87.634 19.2431C88.621 19.2431 89.025 18.3711 89.025 17.4991C89.025 16.6271 88.615 15.7551 87.625 15.7551C86.635 15.7551 86.244 16.6331 86.244 17.4991C86.244 18.3651 86.654 19.2431 87.635 19.2431H87.634Z" fill="#3A3A39"/>
<path d="M94.565 16.665H93.765C93.7218 16.3987 93.581 16.158 93.3701 15.9897C93.1592 15.8215 92.8932 15.7378 92.624 15.755C91.752 15.755 91.233 16.48 91.233 17.499C91.233 18.518 91.746 19.243 92.624 19.243C92.7794 19.241 92.933 19.2084 93.0759 19.147C93.2187 19.0856 93.3481 18.9966 93.4565 18.8851C93.5649 18.7737 93.6502 18.6419 93.7076 18.4974C93.765 18.3529 93.7934 18.1985 93.791 18.043H94.573C94.5702 18.2937 94.5172 18.5413 94.4171 18.7712C94.317 19.0011 94.1717 19.2085 93.99 19.3813C93.8083 19.5541 93.5938 19.6886 93.3591 19.777C93.1245 19.8654 92.8745 19.9059 92.624 19.896C92.3265 19.9044 92.0308 19.848 91.7573 19.7307C91.4838 19.6135 91.239 19.4382 91.04 19.217C90.6285 18.7411 90.4111 18.1278 90.431 17.499C90.4044 17.1945 90.4413 16.8879 90.5394 16.5985C90.6374 16.3091 90.7945 16.0431 91.0006 15.8176C91.2067 15.592 91.4574 15.4116 91.7369 15.2879C92.0163 15.1642 92.3184 15.0999 92.624 15.099C93.088 15.0541 93.5511 15.1927 93.9142 15.485C94.2773 15.7773 94.5117 16.2001 94.567 16.663L94.565 16.665Z" fill="#3A3A39"/>
<path d="M98.706 15.21V15.902H96.213V17.102H98.521V17.756H96.213V19.096H98.751V19.788H95.411V15.21H98.706Z" fill="#3A3A39"/>
<path d="M102.837 16.563H102.037V16.556C101.985 16.017 101.665 15.756 101.05 15.756C100.569 15.756 100.21 15.968 100.21 16.356C100.21 16.656 100.402 16.856 100.793 16.956L102.018 17.277C102.285 17.3412 102.524 17.4926 102.696 17.7074C102.868 17.9221 102.963 18.188 102.967 18.463C102.967 19.363 102.223 19.899 101.146 19.899C99.999 19.899 99.255 19.316 99.236 18.264H100.036C100.042 18.918 100.497 19.245 101.196 19.245C101.811 19.245 102.164 18.956 102.164 18.553C102.174 18.4301 102.142 18.3075 102.073 18.2051C102.005 18.1027 101.903 18.0265 101.786 17.989C101.529 17.906 101.331 17.848 100.478 17.63C99.754 17.451 99.408 17.047 99.408 16.45C99.408 15.52 100.248 15.104 101.081 15.104C102.074 15.101 102.83 15.64 102.837 16.563Z" fill="#3A3A39"/>
<path d="M107.135 16.563H106.335V16.556C106.283 16.017 105.963 15.756 105.348 15.756C104.867 15.756 104.508 15.968 104.508 16.356C104.508 16.656 104.7 16.856 105.091 16.956L106.316 17.277C106.583 17.3412 106.822 17.4926 106.994 17.7074C107.166 17.9221 107.261 18.188 107.265 18.463C107.265 19.363 106.521 19.899 105.444 19.899C104.297 19.899 103.553 19.316 103.534 18.264H104.334C104.34 18.918 104.795 19.245 105.494 19.245C106.109 19.245 106.461 18.956 106.461 18.553C106.471 18.4301 106.439 18.3075 106.37 18.2051C106.302 18.1027 106.2 18.0265 106.083 17.989C105.827 17.906 105.628 17.848 104.775 17.63C104.051 17.451 103.705 17.047 103.705 16.45C103.705 15.52 104.545 15.104 105.378 15.104C106.368 15.101 107.129 15.64 107.135 16.563Z" fill="#3A3A39"/>
<path d="M113.169 15.21V15.902H110.676V17.102H112.984V17.756H110.676V19.096H113.213V19.788H109.873V15.21H113.169Z" fill="#3A3A39"/>
<path d="M117.842 16.665H117.042C116.999 16.3987 116.858 16.158 116.647 15.9898C116.436 15.8216 116.17 15.7379 115.901 15.755C115.029 15.755 114.51 16.48 114.51 17.499C114.51 18.518 115.023 19.243 115.901 19.243C116.056 19.2411 116.21 19.2084 116.353 19.147C116.496 19.0856 116.625 18.9966 116.733 18.8852C116.842 18.7737 116.927 18.6419 116.985 18.4974C117.042 18.3529 117.07 18.1985 117.068 18.043H117.85C117.847 18.2937 117.794 18.5414 117.694 18.7712C117.594 19.0011 117.449 19.2086 117.267 19.3813C117.085 19.5541 116.871 19.6887 116.636 19.7771C116.401 19.8655 116.152 19.9059 115.901 19.896C115.603 19.9044 115.308 19.848 115.034 19.7308C114.761 19.6135 114.516 19.4382 114.317 19.217C113.906 18.7411 113.688 18.1278 113.708 17.499C113.681 17.1946 113.718 16.888 113.816 16.5985C113.914 16.3091 114.071 16.0432 114.278 15.8176C114.484 15.592 114.734 15.4116 115.014 15.288C115.293 15.1643 115.595 15.0999 115.901 15.099C116.365 15.0548 116.828 15.1938 117.191 15.4865C117.553 15.7792 117.787 16.2022 117.842 16.665Z" fill="#3A3A39"/>
<path d="M122.817 17.4991C122.842 17.8022 122.804 18.1073 122.705 18.395C122.607 18.6827 122.449 18.9468 122.243 19.1706C122.037 19.3944 121.787 19.5731 121.508 19.6953C121.23 19.8175 120.929 19.8806 120.625 19.8806C120.32 19.8806 120.019 19.8175 119.741 19.6953C119.462 19.5731 119.212 19.3944 119.006 19.1706C118.8 18.9468 118.643 18.6827 118.544 18.395C118.445 18.1073 118.407 17.8022 118.432 17.4991C118.407 17.1959 118.445 16.8908 118.544 16.6031C118.643 16.3154 118.8 16.0513 119.006 15.8275C119.212 15.6037 119.462 15.425 119.741 15.3028C120.019 15.1806 120.32 15.1176 120.625 15.1176C120.929 15.1176 121.23 15.1806 121.508 15.3028C121.787 15.425 122.037 15.6037 122.243 15.8275C122.449 16.0513 122.607 16.3154 122.705 16.6031C122.804 16.8908 122.842 17.1959 122.817 17.4991ZM120.625 19.2431C121.612 19.2431 122.016 18.3711 122.016 17.4991C122.016 16.6271 121.606 15.7551 120.616 15.7551C119.626 15.7551 119.231 16.6331 119.231 17.4991C119.231 18.3651 119.642 19.2431 120.623 19.2431H120.625Z" fill="#3A3A39"/>
<path d="M126.967 16.563H126.167V16.556C126.115 16.017 125.795 15.756 125.18 15.756C124.699 15.756 124.34 15.968 124.34 16.356C124.34 16.656 124.532 16.856 124.923 16.956L126.148 17.277C126.415 17.3412 126.654 17.4926 126.826 17.7074C126.998 17.9221 127.093 18.188 127.097 18.463C127.097 19.363 126.353 19.899 125.276 19.899C124.129 19.899 123.385 19.316 123.366 18.264H124.166C124.172 18.918 124.627 19.245 125.326 19.245C125.941 19.245 126.293 18.956 126.293 18.553C126.303 18.4301 126.271 18.3075 126.202 18.2051C126.134 18.1027 126.032 18.0265 125.915 17.989C125.658 17.906 125.46 17.848 124.607 17.63C123.883 17.451 123.537 17.047 123.537 16.45C123.537 15.52 124.377 15.104 125.21 15.104C126.204 15.101 126.961 15.64 126.967 16.563Z" fill="#3A3A39"/>
<path d="M128.151 15.21L129.363 17.261L130.556 15.21H131.456L129.751 17.992V19.787H128.951V17.992L127.233 15.21H128.151Z" fill="#3A3A39"/>
<path d="M135.195 16.563H134.395V16.556C134.343 16.017 134.023 15.756 133.408 15.756C132.927 15.756 132.568 15.968 132.568 16.356C132.568 16.656 132.76 16.856 133.151 16.956L134.376 17.277C134.643 17.3412 134.882 17.4926 135.054 17.7074C135.226 17.9221 135.321 18.188 135.325 18.463C135.325 19.363 134.581 19.899 133.504 19.899C132.357 19.899 131.613 19.316 131.594 18.264H132.394C132.4 18.918 132.855 19.245 133.554 19.245C134.169 19.245 134.521 18.956 134.521 18.553C134.531 18.4301 134.499 18.3075 134.43 18.2051C134.362 18.1027 134.26 18.0265 134.143 17.989C133.886 17.906 133.688 17.848 132.835 17.63C132.111 17.451 131.765 17.047 131.765 16.45C131.765 15.52 132.605 15.104 133.438 15.104C134.432 15.101 135.189 15.64 135.195 16.563Z" fill="#3A3A39"/>
<path d="M139.388 15.21V15.902H137.933V19.787H137.133V15.902H135.682V15.21H139.388Z" fill="#3A3A39"/>
<path d="M143.307 15.21V15.902H140.814V17.102H143.122V17.756H140.814V19.096H143.352V19.788H140.012V15.21H143.307Z" fill="#3A3A39"/>
<path d="M145.285 15.21L146.548 18.794H146.56L147.791 15.21H148.907V19.787H148.144V16.254H148.131L146.865 19.787H146.205L144.936 16.254H144.923V19.787H144.16V15.21H145.285Z" fill="#3A3A39"/>
</g>
<defs>
<clipPath id="clip0">
<rect width="149.55" height="20.001" fill="white"/>
</clipPath>
</defs>
</svg>
