<svg width="16" height="16" viewBox="2 2 12 12" fill="none" xmlns="http://www.w3.org/2000/svg">
<path d="M3.19392 14.0137V8.61328H2.59382C2.47527 8.61202 2.3596 8.57607 2.2613 8.50977C2.16301 8.44347 2.08667 8.34969 2.04109 8.24023C1.99607 8.13084 1.98427 8.01054 2.0074 7.89453C2.03053 7.77852 2.08745 7.6736 2.17097 7.58984L7.57869 2.18164C7.69115 2.06959 7.84376 2.00586 8.00252 2.00586C8.16127 2.00586 8.3134 2.06959 8.42586 2.18164L13.835 7.58984C13.9184 7.67372 13.9752 7.77853 13.9981 7.89453C14.0211 8.01053 14.0091 8.13094 13.9639 8.24023C13.9184 8.34969 13.8415 8.44347 13.7432 8.50977C13.6449 8.57607 13.5293 8.61202 13.4107 8.61328H12.8111V14.0137H3.19392Z" fill="#009fe3"/>
</svg>
