<svg width="20" height="20" viewBox="0 0 20 20" fill="none" xmlns="http://www.w3.org/2000/svg">
<path d="M18.0689 16.9L13.6009 12.4319C14.6323 11.1008 15.118 9.42675 14.9593 7.75025C14.8005 6.07376 14.0091 4.52069 12.7461 3.40684C11.4831 2.29298 9.84329 1.70199 8.1601 1.75402C6.4769 1.80605 4.87672 2.49721 3.68493 3.68695C2.49053 4.87763 1.79536 6.47912 1.74121 8.16476C1.68706 9.8504 2.27801 11.4932 3.39352 12.7581C4.50904 14.023 6.06508 14.8147 7.74426 14.9717C9.42345 15.1286 11.0993 14.6391 12.4299 13.6029L16.8979 18.07L18.0689 16.9ZM8.36993 13.3449C7.21982 13.3452 6.10521 12.9466 5.21602 12.2172C4.32684 11.4877 3.7181 10.4725 3.49355 9.34453C3.26899 8.21655 3.44251 7.04561 3.98453 6.03123C4.52655 5.01685 5.40353 4.2218 6.46605 3.78155C7.52856 3.34131 8.71086 3.28311 9.81148 3.61688C10.9121 3.95064 11.8629 4.65572 12.5019 5.61197C13.141 6.56821 13.4286 7.71645 13.316 8.86103C13.2033 10.0056 12.6972 11.0757 11.8839 11.8889C11.4236 12.352 10.876 12.7191 10.2728 12.969C9.66962 13.219 9.02284 13.3467 8.36993 13.3449Z" fill="#737373"/>
</svg>
